<!-- <svg xmlns="http://www.w3.org/2000/svg" viewBox="0 0 32 32" style="display:block;fill:none;height:24px;width:24px;stroke:currentColor;stroke-width:1.3333333333333333;overflow:visible" aria-hidden="true" role="presentation" focusable="false"><path fill="none" d="M19.38 27a4.14 4.14 0 0 1 3.05-2.54 4.06 4.06 0 0 1 3.17.71 1 1 0 0 0 1.47-.33l2.11-3.64a1 1 0 0 0-.46-1.44 4.1 4.1 0 0 1 0-7.48 1 1 0 0 0 .46-1.44l-2.11-3.66a1 1 0 0 0-1.47-.33 4.07 4.07 0 0 1-3.17.71A4.14 4.14 0 0 1 19.38 5a4 4 0 0 1-.27-1.87 1 1 0 0 0-1-1.15h-4.2a1 1 0 0 0-1 1.15 4.11 4.11 0 0 1-3.34 4.43 4.06 4.06 0 0 1-3.17-.71 1 1 0 0 0-1.47.33l-2.11 3.64a1 1 0 0 0 .46 1.44 4.1 4.1 0 0 1 0 7.48 1 1 0 0 0-.46 1.44l2.11 3.64a1 1 0 0 0 1.47.33 4.06 4.06 0 0 1 3.17-.71 4.1 4.1 0 0 1 3 2.53 4 4 0 0 1 .28 1.88 1 1 0 0 0 1 1.15h4.18a1 1 0 0 0 1-1.15 4 4 0 0 1 .35-1.85zM12 16a4 4 0 1 1 4 4 4 4 0 0 1-4-4z" vector-effect="non-scaling-stroke"></path></svg> -->

<svg xmlns="http://www.w3.org/2000/svg" height="1em" viewBox="0 0 512 512"><path d="M243.4 2.6l-224 96c-14 6-21.8 21-18.7 35.8S16.8 160 32 160v8c0 13.3 10.7 24 24 24H456c13.3 0 24-10.7 24-24v-8c15.2 0 28.3-10.7 31.3-25.6s-4.8-29.9-18.7-35.8l-224-96c-8-3.4-17.2-3.4-25.2 0zM128 224H64V420.3c-.6 .3-1.2 .7-1.8 1.1l-48 32c-11.7 7.8-17 22.4-12.9 35.9S17.9 512 32 512H480c14.1 0 26.5-9.2 30.6-22.7s-1.1-28.1-12.9-35.9l-48-32c-.6-.4-1.2-.7-1.8-1.1V224H384V416H344V224H280V416H232V224H168V416H128V224zM256 64a32 32 0 1 1 0 64 32 32 0 1 1 0-64z"/></svg>